<svg version="1" xmlns="http://www.w3.org/2000/svg" width="960" height="960" viewBox="0 0 720.000000 720.000000"><path d="M324 40.6C214 53.4 116.7 123 68.4 223.5c-14.8 30.9-23.5 59.6-29 96-2.3 14.9-2.8 60.6-.9 76.1 9.4 76.9 41.9 142.8 97.1 196.5 49.6 48.1 110.7 78.5 179.4 89.1 19.6 3 66.7 3.3 85.5.5 41.3-6.2 80.7-19.5 114.2-38.7 27-15.5 46.8-30.6 68.8-52.5 16.9-16.8 18.7-18.7 27.6-30 35.9-45.5 60.4-102.6 66.9-156 .6-5 1.3-10.8 1.6-13 .3-2.2.7-12.6.9-23 2.2-135.6-85.5-262.8-214.3-310.6-22.2-8.2-49.6-14.6-74.7-17.4-16.8-1.9-50.9-1.8-67.5.1zm63.5 34c36.5 4.3 66.7 13.1 97.5 28.5 75.6 37.9 132.4 108.4 153.1 190.2 6.4 25.3 8.5 43.8 8.3 72.2-.6 70.4-29.4 139-80.5 191.9-46.9 48.6-108.6 79.3-174.4 86.8-15.8 1.8-49.3 1.5-64.5-.6-56.7-7.6-107.3-29.9-149.9-66-81.8-69.2-118.3-173.8-96.5-276.9 7.2-34.2 22.2-69.5 41.7-98.7 3.2-4.7 13.7-19.1 14.7-20 .3-.3 2.9-3.4 5.9-7 7.4-8.9 27-28.2 36.1-35.6 45-36.5 98-59 151.5-64.3 6.1-.6 12.6-1.3 14.5-1.5 4.9-.5 36.4.2 42.5 1z"/><path d="M290.5 143.9c-45.6 16.3-78.9 50.5-94.1 96.8-13.7 41.9-11.2 86.7 6.8 122.8 6.3 12.6 15.5 25.2 25.8 35.6 18.5 18.6 35 26.4 57.9 27.6l10.3.6-.4-38.4-.5-38.4-3.2-6.4c-4-8.1-9.6-15-17.9-22.1-8.8-7.5-18.5-17.4-23.8-24.2-25.2-32.4-26.3-76.6-2.9-112.3 5-7.6 21-23.7 29.6-29.8 3.6-2.6 10.1-6.7 14.5-9.2 8.5-4.8 7.5-6-2.1-2.6zM380.3 364.9c.2 117.8.6 214.4.9 214.6.2.2 5.3-2.8 11.3-6.7 36.4-23.6 54-35.1 54.4-35.4.3-.3-4.3-6.5-8-10.8-.4-.5-2.2 0-4.1 1.1-1.8 1.1-8.6 5.2-15.1 9.2-6.6 4-12 7.1-12.2 6.9-.3-.3-.9-4.2-2-13.8-.4-3-.8-6.6-1-8-.2-1.4-.6-4.8-.9-7.5-.3-2.8-1.5-12.7-2.6-22-1.1-9.4-2.7-22.9-3.6-30-.8-7.2-1.7-13.9-1.9-15.1-.4-1.8 2.1-3.6 18.3-12.9 10.3-5.9 20.3-11.8 22.4-13.1l3.6-2.3 39.4 29.5c21.6 16.3 39.4 29.9 39.6 30.3.1.3-2.1 1.9-5 3.3-6.1 3.2-26.1 13.9-26.7 14.4-.3.3 4.6 13.1 5.5 14.3.4.5 7.8-3.3 42.2-21.7 6.2-3.3 15.1-8 19.8-10.4l8.6-4.3-.6-19c-.4-10.5-.9-25.3-1.2-33-.3-7.7-.7-17.6-.8-22l-.3-8-7.1-.3-7.2-.3V411c0 10.4-.4 19-.9 19-.7 0-13.6-5.5-25.6-10.9-2.2-1-17.6-7.8-34.2-15.1L455 390.7v-50.4l45.3-20.2c24.8-11 45.5-20.1 46-20.1.4 0 .7 8.5.7 19v19h7c3.9 0 7-.1 7.1-.3 0-.1.3-18.4.5-40.7l.5-40.5-33.3-18.2c-18.3-10-34-18.5-34.8-18.8-1.1-.4-2.3 1.1-4.4 5.5-1.6 3.3-2.7 6.2-2.5 6.4.2.1 7.3 4.5 15.6 9.7 8.4 5.2 15.2 9.7 15 10-.4 1.2-77.7 57.9-78.9 57.9-.6 0-10.7-5.5-22.4-12.1-18.7-10.6-21.3-12.4-20.9-14.3.2-1.1.6-4.4.9-7.1 1.7-17.3 9.8-89.1 10.1-89.3.2-.2 7.8 3.8 16.9 8.9 9.2 5 16.8 9 17 8.8 1.1-1.2 6.8-12 6.5-12.3-.4-.3-64.9-39.6-66.3-40.4-.5-.3-.6 92.6-.3 213.7z"/><path d="M331.9 206.7c-13.9 15.4-27.1 45-28 62.6-.3 5.4.1 6 5.4 7.7 5.9 1.9 15.4 8.7 20.2 14.7 10.5 12.9 17.8 35.2 20.4 62.7 2.1 21.5.9 66-2.4 91.1-.5 3.7-1.9 13.9-3.1 22.5-1 7.6-2.6 15.9-4.9 25-1.3 5.2-3.3 13.9-4.4 19.2-2 9.6-4.3 15.8-6 15.8-1.7 0-4.3-4.1-8.8-14.1-5.8-13.1-10.5-20.2-15-23-3.2-2-4.3-2.1-13.1-1.5-5.4.3-13.7 1.1-18.7 1.7-12.9 1.5-32.8 1.3-39.7-.5-15-4-24.2-10.5-46.5-32.8-8.9-8.9-16.6-15.9-17-15.5-1.1 1.1 2.6 8 16.2 29.8 13 20.9 27.4 40.1 34.3 45.6 5.4 4.3 14.5 8.8 21.1 10.3 3.2.8 8.9 1.1 14.5.8 9.7-.5 18-3.2 28.1-9l5-2.9-3.5 3.3c-12.2 11.5-21.9 17.9-29.5 19.2-6.3 1.1-7.5 1.6-7.5 3.2 0 5.1 21 17 45.6 25.9 19.5 7.1 48 12.5 66 12.5h8.4v-16.5c0-15-.2-16.5-1.9-17.4-5.1-2.8-4.9 1.9-5.4-134.7-.3-90.5-.8-127.6-1.5-129.1-1.7-3.1-6.7-7-13.1-10.3-7.3-3.7-12.2-8.7-16-16.5-8.1-16.3-7.4-32.5 1.9-47.6 1.7-2.8 2.9-5.3 2.7-5.5-.2-.3-2 1.2-3.8 3.3z"/><path d="M363.5 209.2c-.2.7-.9 4.6-1.5 8.5-1 6.4-1.4 7.3-3.3 7.3-8 .1-23.3 1.4-24 2-.5.4 3 2.2 7.7 4 4.7 1.8 8.6 3.6 8.6 4 0 .4-4.2 2.4-9.2 4.3-6.8 2.7-8.6 3.7-6.5 3.8 1.5.1 3.6.3 4.7.4 1.1.1 6.2.3 11.4.4l9.3.1 1.2 7.7c1.6 10 1.9 11 3.6 11.7 1.3.5 1.5-3.3 1.5-27.4 0-24.5-.2-28-1.5-28-.9 0-1.7.6-2 1.2zM175.5 254.8c-7.6 11.5-16.3 39.6-19.5 63-1.3 9.4-1.6 33.8-.6 42.2 1.9 15.7 6.4 34 11.4 46.6 15.5 39 41.5 64.3 76.9 75.1 7.7 2.3 10.6 2.7 22.8 2.7 15 .1 19.9-.8 31.8-6.1l5.8-2.6-.6-5.1c-2.2-16.1-10.5-30-21.1-35.4-1.2-.7-7.1-2.5-13.1-4.1-14-3.8-24.2-8.5-36.8-16.8-23.2-15.5-42-40.8-50.9-69.1-7.3-23.2-9.1-53.4-4.7-78.6 1.2-7 2.5-13.4 2.8-14.2 1.1-2.9-1.8-1.2-4.2 2.4z"/></svg>